
<svg  width="10px" height="9px" viewBox="0 0 10 9" version="1.1">
<g >
<path  d="M 5.5 0.316406 C 5.410156 0.125 5.214844 0 5 0 C 4.789062 0 4.59375 0.125 4.5 0.316406 L 3.386719 2.640625 L 0.890625 3.015625 C 0.683594 3.046875 0.511719 3.195312 0.445312 3.394531 C 0.382812 3.597656 0.433594 3.820312 0.582031 3.972656 L 2.390625 5.78125 L 1.964844 8.34375 C 1.929688 8.554688 2.015625 8.769531 2.1875 8.894531 C 2.359375 9.019531 2.589844 9.035156 2.777344 8.933594 L 5.003906 7.730469 L 7.230469 8.933594 C 7.417969 9.035156 7.644531 9.019531 7.816406 8.894531 C 7.988281 8.769531 8.078125 8.554688 8.042969 8.34375 L 7.613281 5.78125 L 9.421875 3.972656 C 9.570312 3.820312 9.625 3.597656 9.558594 3.394531 C 9.492188 3.195312 9.320312 3.046875 9.113281 3.015625 L 6.617188 2.640625 Z M 5.5 0.316406 "/>
</g>
</svg>
