<?xml version="1.0" encoding="UTF-8"?>
<svg xmlns="http://www.w3.org/2000/svg" xmlns:xlink="http://www.w3.org/1999/xlink" width="20px" height="21px" viewBox="0 0 20 21" version="1.1">
<g id="surface1">
<path  d="M 7.753906 13.480469 C 7.753906 14.339844 7.300781 15.742188 6.226562 15.742188 C 5.148438 15.742188 4.695312 14.339844 4.695312 13.480469 C 4.695312 12.625 5.148438 11.222656 6.226562 11.222656 C 7.300781 11.222656 7.753906 12.625 7.753906 13.480469 Z M 20 11.410156 C 20 12.71875 19.867188 14.105469 19.269531 15.308594 C 17.691406 18.449219 13.351562 18.375 10.242188 18.375 C 7.082031 18.375 2.484375 18.484375 0.839844 15.308594 C 0.234375 14.117188 0 12.71875 0 11.410156 C 0 9.691406 0.578125 8.066406 1.730469 6.75 C 1.511719 6.101562 1.410156 5.421875 1.410156 4.75 C 1.410156 3.867188 1.613281 3.425781 2.015625 2.625 C 3.902344 2.625 5.113281 2.992188 6.550781 4.101562 C 7.757812 3.820312 9 3.691406 10.246094 3.691406 C 11.371094 3.691406 12.503906 3.808594 13.597656 4.070312 C 15.011719 2.972656 16.222656 2.625 18.085938 2.625 C 18.496094 3.425781 18.695312 3.867188 18.695312 4.75 C 18.695312 5.421875 18.585938 6.089844 18.375 6.726562 C 19.519531 8.054688 20 9.691406 20 11.410156 Z M 17.320312 13.480469 C 17.320312 11.679688 16.207031 10.09375 14.257812 10.09375 C 13.472656 10.09375 12.714844 10.234375 11.925781 10.339844 C 11.304688 10.433594 10.683594 10.472656 10.046875 10.472656 C 9.414062 10.472656 8.792969 10.433594 8.167969 10.339844 C 7.386719 10.234375 6.625 10.09375 5.832031 10.09375 C 3.882812 10.09375 2.769531 11.679688 2.769531 13.480469 C 2.769531 17.082031 6.121094 17.636719 9.039062 17.636719 L 11.046875 17.636719 C 13.976562 17.636719 17.320312 17.085938 17.320312 13.480469 Z M 13.878906 11.222656 C 12.804688 11.222656 12.351562 12.625 12.351562 13.480469 C 12.351562 14.339844 12.804688 15.742188 13.878906 15.742188 C 14.953125 15.742188 15.410156 14.339844 15.410156 13.480469 C 15.410156 12.625 14.953125 11.222656 13.878906 11.222656 Z M 13.878906 11.222656 "/>
</g>
</svg>
