<?xml version="1.0" encoding="UTF-8"?>
<svg xmlns="http://www.w3.org/2000/svg" xmlns:xlink="http://www.w3.org/1999/xlink" width="35px" height="31px" viewBox="0 0 34 31" version="1.1">
<g id="surface1">
<path d="M 33.988281 15.46875 C 33.988281 16.558594 33.101562 17.414062 32.097656 17.414062 L 30.210938 17.414062 L 30.25 27.113281 C 30.25 27.277344 30.238281 27.441406 30.222656 27.601562 L 30.222656 28.578125 C 30.222656 29.917969 29.164062 31 27.859375 31 L 26.917969 31 C 26.851562 31 26.785156 31 26.722656 30.992188 C 26.640625 31 26.554688 31 26.472656 31 L 23.140625 31 C 21.835938 31 20.777344 29.917969 20.777344 28.578125 L 20.777344 23.25 C 20.777344 22.179688 19.933594 21.3125 18.890625 21.3125 L 15.109375 21.3125 C 14.066406 21.3125 13.222656 22.179688 13.222656 23.25 L 13.222656 28.578125 C 13.222656 29.917969 12.164062 31 10.859375 31 L 7.5625 31 C 7.472656 31 7.382812 30.992188 7.296875 30.988281 C 7.226562 30.992188 7.152344 31 7.082031 31 L 6.140625 31 C 4.835938 31 3.777344 29.917969 3.777344 28.578125 L 3.777344 21.796875 C 3.777344 21.742188 3.777344 21.683594 3.785156 21.628906 L 3.785156 17.414062 L 1.890625 17.414062 C 0.828125 17.414062 0 16.566406 0 15.46875 C 0 14.925781 0.175781 14.441406 0.589844 14.015625 L 15.726562 0.484375 C 16.136719 0.0625 16.609375 0 17.023438 0 C 17.4375 0 17.910156 0.121094 18.261719 0.421875 L 33.339844 14.015625 C 33.8125 14.441406 34.046875 14.925781 33.988281 15.46875 Z M 33.988281 15.46875 "/>
</g>
</svg>
