 <svg width="15px" height="15px" viewBox="0 0 15 15" version="1.1">
        <g>
          <path
            d="M 13.578125 6.5625 L 13.828125 6.5625 C 14.21875 6.5625 14.53125 6.25 14.53125 5.859375 L 14.53125 2.109375 C 14.53125 1.824219 14.359375 1.566406 14.097656 1.460938 C 13.835938 1.351562 13.53125 1.410156 13.328125 1.609375 L 12.109375 2.828125 C 9.542969 0.296875 5.410156 0.304688 2.859375 2.859375 C 0.296875 5.421875 0.296875 9.578125 2.859375 12.140625 C 5.421875 14.703125 9.578125 14.703125 12.140625 12.140625 C 12.507812 11.773438 12.507812 11.179688 12.140625 10.8125 C 11.773438 10.445312 11.179688 10.445312 10.8125 10.8125 C 8.980469 12.644531 6.015625 12.644531 4.183594 10.8125 C 2.351562 8.980469 2.351562 6.015625 4.183594 4.183594 C 6.003906 2.359375 8.949219 2.351562 10.785156 4.152344 L 9.578125 5.359375 C 9.378906 5.5625 9.320312 5.867188 9.429688 6.128906 C 9.535156 6.390625 9.792969 6.5625 10.078125 6.5625 Z M 13.578125 6.5625 "
          />
        </g>
      </svg>